<?xml version="1.0" standalone="no"?><!DOCTYPE svg PUBLIC "-//W3C//DTD SVG 1.1//EN" "http://www.w3.org/Graphics/SVG/1.1/DTD/svg11.dtd"><svg t="1624879739803" class="icon" viewBox="0 0 1024 1024" version="1.1" xmlns="http://www.w3.org/2000/svg" p-id="1644" xmlns:xlink="http://www.w3.org/1999/xlink" width="200" height="200"><defs><style type="text/css"></style></defs><path d="M751.80113 11.570621H210.932429a74.804068 74.804068 0 0 0-74.572655 74.572656v851.713446A74.804068 74.804068 0 0 0 210.932429 1012.429379h708.700565a74.804068 74.804068 0 0 0 74.572656-74.572656V254.032994z" fill="#F7E2E2" p-id="1645"></path><path d="M751.80113 179.344633a74.861921 74.861921 0 0 0 74.572655 74.630508h167.774012L751.80113 11.570621z" fill="#F49292" p-id="1646"></path><path d="M18.223729 624.813559m69.423729 0l569.853107 0q69.423729 0 69.423729 69.423729l0 185.129944q0 69.423729-69.423729 69.423728l-569.853107 0q-69.423729 0-69.423729-69.423728l0-185.129944q0-69.423729 69.423729-69.423729Z" fill="#F47F7F" p-id="1647"></path><path d="M212.205198 899.268701a49.637966 49.637966 0 0 1-17.008814-40.497176 48.943729 48.943729 0 0 1 15.562486-38.703728c10.355706-9.140791 25.050395-13.711186 43.968362-13.711187H313.274576l2.371978 22.794124h-60.745763a39.976497 39.976497 0 0 0-26.265311 7.752317 29.620791 29.620791 0 0 0 2.371978 45.06757 56.40678 56.40678 0 0 0 32.918418 8.215142 107.201808 107.201808 0 0 0 35.348248-4.570396c8.388701-3.066215 12.611977-7.347345 12.611978-12.901243l3.529039 23.141243a46.282486 46.282486 0 0 1-13.711186 9.661469 77.291751 77.291751 0 0 1-18.917966 5.785311 123.458531 123.458531 0 0 1-23.141243 2.024859q-30.430734 0.231412-47.439548-14.058305z m99.680904-100.143729a45.588249 45.588249 0 0 0-11.570622-33.265537 43.331977 43.331977 0 0 0-32.571299-11.570621 76.423955 76.423955 0 0 0-24.645424 4.049717 71.332881 71.332881 0 0 0-21.40565 11.570622l-17.87661-12.207006a66.241808 66.241808 0 0 1 26.43887-18.80226 94.76339 94.76339 0 0 1 36.736723-6.942373 83.134915 83.134915 0 0 1 37.546667 7.752317 53.340565 53.340565 0 0 1 23.83548 22.447005 71.795706 71.795706 0 0 1 8.041582 35.406102v113.449943h-24.529717zM480.643616 734.734463h26.033898l-69.712994 176.278418H417.410169L347.986441 734.734463h25.976045l53.398418 144.632769zM528.372429 663.748701h24.529718V688.451977h-24.529718z m0 70.75435h24.529718v176.50983h-24.529718z" fill="#FFFFFF" p-id="1648"></path><path d="M283.480226 150.418079h335.548023v364.474576h-335.548023z" fill="#F49292" p-id="1649"></path><path d="M358.689266 295.050847h185.129943v75.20904h-185.129943zM358.689266 404.971751h185.129943v75.20904h-185.129943zM358.689266 185.129944h185.129943v75.209039h-185.129943z" fill="#F7E2E2" p-id="1650"></path></svg>