<?xml version="1.0" standalone="no"?><!DOCTYPE svg PUBLIC "-//W3C//DTD SVG 1.1//EN" "http://www.w3.org/Graphics/SVG/1.1/DTD/svg11.dtd"><svg t="1624887916944" class="icon" viewBox="0 0 1024 1024" version="1.1" xmlns="http://www.w3.org/2000/svg" p-id="12075" xmlns:xlink="http://www.w3.org/1999/xlink" width="200" height="200"><defs><style type="text/css"></style></defs><path d="M308.3 520.1c-5.5-4.3-12.1-7.6-19.8-9.7-7.7-2.2-22-3.2-43-3.2h-13v89.5h28.9c16.6 0 28.9-1.7 36.8-5 7.9-3.3 14.3-8.5 19.3-15.6 5-7 7.5-14.2 7.5-21.6 0-7.3-1.4-13.8-4.2-19.5-2.9-5.6-7-10.6-12.5-14.9zM511.5 81C272.6 81 79 274.6 79 513.5S272.6 946 511.5 946 944 752.4 944 513.5 750.4 81 511.5 81zM328.2 600.4c-14.1 12.7-32.2 19-54.5 19h-64.2v-233h46.1c24.4 0 43 4.9 55.6 14.8 12.7 9.8 19 24 19 42.3 0 10.2-2.5 19.5-7.6 28.1-5.1 8.5-12.5 15.4-22.2 20.6 16 5.2 28.2 13 36.5 23.4 8.3 10.4 12.5 22.7 12.5 37-0.1 19.2-7.1 35.1-21.2 47.8zM624 619.3l-22.7-166.7-82.4 166.7h-5.8l-83.4-168-22.7 168h-22.4l33.1-232.9h3.6L516 577.5l94.1-191.1h3.6l33.4 232.9H624z m169.2-112.4c-13.1 2.7-33.1 4.1-60.2 4.1h-16.5v108.3h-23.4V386.4h46.4c27.5 0 45.4 1.1 53.8 3.2 8.4 2.2 16.2 6 23.2 11.4s12.5 12.2 16.4 20.3c3.9 8.1 5.8 17.1 5.8 27.1 0 16-4.3 29.1-13 39.3-8.6 10.1-19.4 16.5-32.5 19.2z m-35.5-97.8h-41.2v79.5h39.3c23.6 0.4 39.2-3.4 47-11.5 7.8-8.1 11.7-17.7 11.7-28.7-0.1-26.2-19-39.3-56.8-39.3zM291.2 474c9.9-6.5 14.9-16.6 14.9-30.5 0-22.9-15.6-34.4-46.7-34.4h-26.9v74.6h13.3c20.3 0 35.5-3.2 45.4-9.7z" fill="#81ABF7" p-id="12076"></path></svg>