<?xml version="1.0" standalone="no"?><!DOCTYPE svg PUBLIC "-//W3C//DTD SVG 1.1//EN" "http://www.w3.org/Graphics/SVG/1.1/DTD/svg11.dtd"><svg t="1624879777278" class="icon" viewBox="0 0 1024 1024" version="1.1" xmlns="http://www.w3.org/2000/svg" p-id="1889" xmlns:xlink="http://www.w3.org/1999/xlink" width="200" height="200"><defs><style type="text/css"></style></defs><path d="M923.136 969.557333H193.024v-909.653333h521.386667l208.725333 207.701333z" fill="#7CCDFF" p-id="1890"></path><path d="M912.896 253.952l2.56 671.914667c0 15.530667-12.458667 27.989333-27.989333 27.989333H237.909333c-15.530667 0-27.989333-12.458667-27.989333-27.989333V96.938667c0-15.530667 12.458667-27.989333 27.989333-27.989334l493.397334-1.024-38.912-39.936H239.274667c-36.352 0-65.706667 29.354667-65.706667 65.706667v835.584c0 36.352 29.354667 65.706667 65.706667 65.706667h646.826666c36.352 0 65.706667-29.354667 65.706667-65.706667V293.888l-38.912-39.936z" fill="#4191FB" p-id="1891"></path><path d="M692.394667 222.72c0 39.424 31.914667 71.338667 71.338666 71.338667h188.245334L692.394667 27.989333v194.730667z" fill="#C7E2FF" p-id="1892"></path><path d="M557.568 482.304H158.72c-50.346667 0-91.136-40.789333-91.136-91.136v-60.245333c0-50.346667 40.789333-91.136 91.136-91.136h398.848c50.346667 0 91.136 40.789333 91.136 91.136v60.245333c0 50.346667-40.789333 91.136-91.136 91.136z" fill="#4191FB" p-id="1893"></path><path d="M106.666667 287.573333h61.44l23.722666 94.72 23.552-94.72h61.269334v155.818667h-38.229334v-118.784l-29.525333 118.784h-34.645333l-29.354667-118.784v118.784H106.666667v-155.818667zM306.517333 287.573333H353.28V346.453333l48.810667-58.88H464.213333l-55.125333 58.709334 57.514667 96.938666h-57.514667L377.173333 379.221333l-23.893333 26.112v38.058667h-46.592l-0.170667-155.818667zM467.285333 287.573333h48.810667l33.962667 112.128 33.621333-112.128h47.445333l-56.149333 155.818667h-50.517333l-57.173334-155.818667z" fill="#FFFFFF" p-id="1894"></path><path d="M387.242667 719.530667C387.413333 622.933333 466.261333 544.426667 563.2 544.597333c97.109333 0.170667 175.104 79.701333 174.762667 177.834667-0.341333 94.72-80.042667 174.250667-175.104 174.762667-95.573333 0.682667-175.786667-80.384-175.616-177.664z m296.277333-29.525334c-32.426667 1.706667-56.490667 11.605333-77.312 29.696-4.437333 3.925333-7.168 7.68-4.778667 13.653334 10.922667 26.794667 24.746667 51.2 52.053334 64.682666 19.285333 9.557333 39.253333 5.802667 52.565333-10.922666 14.165333-17.578667 21.162667-38.058667 16.554667-61.098667-4.266667-22.016-21.504-36.010667-39.082667-36.010667z m-273.578667 6.656c0 25.941333 11.264 41.642667 35.157334 45.738667 33.28 5.973333 59.562667-9.557333 83.968-29.866667 5.12-4.266667 3.242667-9.386667 1.194666-14.506666-7.168-17.749333-16.554667-34.304-30.037333-47.786667-31.744-31.744-71.509333-22.186667-86.016 20.309333-2.901333 8.533333-4.437333 17.237333-4.266667 26.112z m241.664-86.869333c0.341333-9.386667-2.048-17.578667-7.850666-24.917333-16.213333-20.992-54.784-30.890667-79.018667-19.968-12.117333 5.461333-19.285333 14.677333-22.869333 27.477333-5.632 20.992 0.853333 39.594667 9.728 57.856 18.090667 37.034667 24.234667 39.082667 59.733333 18.090667 22.186667-13.141333 38.229333-31.402667 40.277333-58.538667z m-57.856 214.357333c-0.170667-17.578667-16.384-54.272-28.842666-67.584-6.144-6.656-12.458667-5.290667-19.285334-2.56-19.456 7.850667-36.693333 18.944-50.346666 35.157334-24.064 28.842667-17.237333 61.269333 16.725333 76.970666 7.338667 3.413333 15.701333 5.290667 23.722667 6.826667 34.133333 5.973333 58.368-14.677333 58.026666-48.810667z" fill="#4191FB" p-id="1895"></path></svg>