<?xml version="1.0" standalone="no"?><!DOCTYPE svg PUBLIC "-//W3C//DTD SVG 1.1//EN" "http://www.w3.org/Graphics/SVG/1.1/DTD/svg11.dtd"><svg t="1624879808584" class="icon" viewBox="0 0 1024 1024" version="1.1" xmlns="http://www.w3.org/2000/svg" p-id="2567" xmlns:xlink="http://www.w3.org/1999/xlink" width="200" height="200"><defs><style type="text/css"></style></defs><path d="M704 0H192c-35.328 0-64 28.672-64 64v320h576c35.328 0 64 28.672 64 64v415.744c0 35.328-28.672 64-64 64H128v31.744c0 35.328 28.672 64 64 64h768c35.328 0 64-28.672 64-64v-640L704 0z" fill="#EAEAEA" p-id="2568"></path><path d="M704 0v256c0 35.328 28.672 64 64 64h256L704 0z" fill="#434854" p-id="2569"></path><path d="M768 320l256 256V320z" opacity=".1" p-id="2570"></path><path d="M704 832c0 17.92-14.336 31.744-31.744 31.744H31.744C13.824 863.744 0 849.408 0 832V480.256c0-17.92 14.336-31.744 31.744-31.744h640c17.92 0 31.744 14.336 31.744 31.744V832z" fill="#724AE2" p-id="2571"></path><path d="M537.088 547.84c9.728 0 14.336 4.608 14.336 13.824v132.608h18.944c9.728 0.512 14.336 4.608 14.336 13.312s-5.12 13.312-15.36 13.312h-18.432v37.888c-0.512 9.728-5.12 14.336-13.824 14.336s-13.312-5.12-13.312-15.36v-36.864h-79.36c-12.8-0.512-19.456-4.096-19.456-11.776 0-4.096 1.536-7.68 4.096-11.776l94.208-141.312 0.512-1.024c3.584-4.608 8.192-7.168 13.312-7.168z m-302.592-1.536c7.168 0 11.264 5.12 11.264 15.872v193.536c0 10.752-4.608 15.872-11.264 15.872s-11.264-5.12-11.264-15.872V622.08l-44.544 140.8c-2.048 6.144-8.192 8.704-12.288 8.704s-10.24-3.072-12.288-8.704l-46.08-140.8v133.632c0 10.752-6.144 15.872-12.8 15.872s-12.8-5.12-12.8-15.872V562.176c0-10.752 5.632-15.872 12.8-15.872 4.608 0 10.752 3.072 12.8 8.704L166.4 728.064l56.832-173.056c2.048-6.144 6.144-8.704 11.264-8.704z m121.856 0c35.328 0 63.488 28.672 63.488 64 0 34.816-27.648 62.976-62.464 64h-33.28v79.872c0 8.704-7.168 15.872-15.872 15.872-8.192 0-15.36-6.656-15.872-14.848V562.176c0-8.192 6.656-15.36 14.848-15.872h49.152z m166.912 58.368l-59.904 90.112h59.904v-90.112z m-166.912-26.624h-31.744v64h31.744c17.92 0 31.744-14.848 31.744-32.256s-13.824-31.744-31.744-31.744z" fill="#FFFFFF" p-id="2572"></path></svg>