<?xml version="1.0" standalone="no"?><!DOCTYPE svg PUBLIC "-//W3C//DTD SVG 1.1//EN" "http://www.w3.org/Graphics/SVG/1.1/DTD/svg11.dtd"><svg t="1727276440079" class="icon" viewBox="0 0 1024 1024" version="1.1" xmlns="http://www.w3.org/2000/svg" p-id="1473" xmlns:xlink="http://www.w3.org/1999/xlink" width="200" height="200"><path d="M832 1024H177.777778a42.666667 42.666667 0 0 1-42.666667-42.666667V42.666667a42.666667 42.666667 0 0 1 42.666667-42.666667h465.92a42.666667 42.666667 0 0 1 30.151111 12.515556l188.302222 188.302222a42.666667 42.666667 0 0 1 12.515556 30.151111V981.333333a42.666667 42.666667 0 0 1-42.666667 42.666667z" fill="#0F66F0" p-id="1474"></path><path d="M49.777778 398.222222m28.444444 0l867.555556 0q28.444444 0 28.444444 28.444445l0 355.555555q0 28.444444-28.444444 28.444445l-867.555556 0q-28.444444 0-28.444444-28.444445l0-355.555555q0-28.444444 28.444444-28.444445Z" fill="#00BE66" p-id="1475"></path><path d="M945.777778 412.444444a14.222222 14.222222 0 0 1 14.222222 14.222223v355.555555a14.222222 14.222222 0 0 1-14.222222 14.222222H78.222222a14.222222 14.222222 0 0 1-14.222222-14.222222V426.666667a14.222222 14.222222 0 0 1 14.222222-14.222223h867.555556m0-28.444444H78.222222a42.666667 42.666667 0 0 0-42.666666 42.666667v355.555555a42.666667 42.666667 0 0 0 42.666666 42.666667h867.555556a42.666667 42.666667 0 0 0 42.666666-42.666667V426.666667a42.666667 42.666667 0 0 0-42.666666-42.666667z" fill="#0F66F0" p-id="1476"></path><path d="M282.737778 602.026667c0-55.466667 31.431111-86.897778 77.653333-86.897778s77.653333 31.573333 77.653333 86.897778-31.431111 88.746667-77.653333 88.746666-77.653333-33.137778-77.653333-88.746666z m113.777778 0c0-32.711111-14.222222-52.053333-36.124445-52.053334s-35.982222 18.915556-35.982222 52.053334 14.222222 53.76 35.982222 53.76 36.124444-20.906667 36.124445-53.76zM469.333333 517.973333h108.088889v33.991111h-67.271111v37.12h57.742222v33.848889h-57.742222v64.711111H469.333333zM606.72 517.973333h48.782222c51.626667 0 85.333333 25.173333 85.333334 84.053334s-34.133333 85.333333-83.484445 85.333333h-50.631111zM652.942222 654.222222c27.306667 0 46.791111-12.515556 46.791111-52.764444s-19.484444-51.484444-46.791111-51.484445H647.111111V654.222222z" fill="#FFFFFF" p-id="1477"></path><path d="M647.111111 213.333333V0h-28.444444v213.333333a42.666667 42.666667 0 0 0 42.666666 42.666667h213.333334v-28.444444H661.333333a14.222222 14.222222 0 0 1-14.222222-14.222223z" fill="#0248C9" p-id="1478"></path></svg>