<?xml version="1.0" standalone="no"?><!DOCTYPE svg PUBLIC "-//W3C//DTD SVG 1.1//EN" "http://www.w3.org/Graphics/SVG/1.1/DTD/svg11.dtd"><svg t="1624887887709" class="icon" viewBox="0 0 1024 1024" version="1.1" xmlns="http://www.w3.org/2000/svg" p-id="11545" xmlns:xlink="http://www.w3.org/1999/xlink" width="200" height="200"><defs><style type="text/css"></style></defs><path d="M146.4 0c-44.8 0-81.6 35.2-81.6 80v862.4c0 44.8 35.2 81.6 81.6 81.6h731.2c44.8 0 81.6-36.8 81.6-81.6V324.8L656.8 0H146.4z" fill="#868EE9" p-id="11546"></path><path d="M228.2 669.7h75.8c42.5 0 63.8 18.2 63.8 54.5 0 36.6-21.5 55-64.1 55H249.5V855h-21.3V669.7z m21.3 18.4v72.7h53.2c15.1 0 26-3.1 33.2-9.1 7-6 10.6-15.1 10.6-27.5s-3.6-21.6-10.9-27c-7.3-6.2-18.2-9.1-33-9.1H249.5z m145.3-18.4V855h21.3V702.6h0.8l105.4 152.3h21.8V669.6h-21.3v150.8h-0.8L417.2 669.6l-22.4 0.1z m265.8-3.7c-27.2 0-48.8 9.6-64.6 29.1-15.1 17.9-22.3 40.5-22.3 68s7.5 50.1 22.6 67.5c16.1 18.7 38.9 28 68.2 28 15.3 0 29.6-2.1 43.1-6.2 12.7-4.2 23.6-9.6 32.4-16.8v-75.8h-79.1v18.4h58.1v47.2c-6.5 4.2-14.3 7.8-23.4 10.4-9.5 2.7-19.2 4.1-29.1 4.2-24.1 0-42.3-7.3-54.5-21.5-11.4-13.5-17.1-31.9-17.1-55.3 0-23.9 5.7-42.8 17.6-56.8 12-14.3 27.7-21.3 48-21.3 16.3 0 29.6 3.9 39.7 12 10 8.1 16.6 19.5 18.7 32.2h21.3c-3.4-20.2-11.4-35.5-24.4-46.2-13.7-11.7-32.2-17.1-55.2-17.1z" fill="#FFFFFF" p-id="11547"></path><path d="M959.2 324.8v16H754.4s-100.8-19.2-97.6-107.2c0 0 3.2 91.2 96 91.2h206.4z" fill="#6B72C7" p-id="11548"></path><path d="M656.8 0v232c0 27.2 17.6 92.8 97.6 92.8h204.8L656.8 0z" fill="#FFFFFF" p-id="11549"></path></svg>