<?xml version="1.0" standalone="no"?><!DOCTYPE svg PUBLIC "-//W3C//DTD SVG 1.1//EN" "http://www.w3.org/Graphics/SVG/1.1/DTD/svg11.dtd"><svg t="1624887705914" class="icon" viewBox="0 0 1024 1024" version="1.1" xmlns="http://www.w3.org/2000/svg" p-id="8425" xmlns:xlink="http://www.w3.org/1999/xlink" width="200" height="200"><defs><style type="text/css"></style></defs><path d="M947.2 216.064l-192.256-204.8A38.144 38.144 0 0 0 728.064 0h-614.4a40.192 40.192 0 0 0-38.912 41.472v941.056A40.192 40.192 0 0 0 113.664 1024H921.6a40.192 40.192 0 0 0 38.912-41.472V245.504A42.752 42.752 0 0 0 947.2 216.064zM652.8 768l-137.216-203.008L378.624 768h-95.488l184.576-264.704L295.424 256h95.488l124.672 185.088L640 256h95.488L563.2 503.04 748.032 768z" fill="#25C273" p-id="8426"></path></svg>